<svg width="214" height="23" viewBox="0 0 214 23" fill="none" xmlns="http://www.w3.org/2000/svg">
<g filter="url(#filter0_i_56_737)">
<path d="M0.98 22V0.699999H5.48V9.67H4.88C5.04 8.73 5.35 7.96 5.81 7.36C6.29 6.76 6.88 6.31 7.58 6.01C8.3 5.71 9.08 5.56 9.92 5.56C11.12 5.56 12.12 5.82 12.92 6.34C13.72 6.86 14.32 7.58 14.72 8.5C15.14 9.42 15.35 10.47 15.35 11.65V22H10.85V12.73C10.85 11.53 10.66 10.63 10.28 10.03C9.92 9.43 9.3 9.13 8.42 9.13C7.5 9.13 6.78 9.44 6.26 10.06C5.74 10.68 5.48 11.61 5.48 12.85V22H0.98ZM24.729 22.36C23.089 22.36 21.659 22.02 20.439 21.34C19.219 20.64 18.269 19.66 17.589 18.4C16.909 17.14 16.569 15.66 16.569 13.96C16.569 12.26 16.909 10.79 17.589 9.55C18.269 8.29 19.219 7.31 20.439 6.61C21.659 5.91 23.089 5.56 24.729 5.56C26.369 5.56 27.799 5.91 29.019 6.61C30.239 7.31 31.189 8.29 31.869 9.55C32.549 10.79 32.889 12.26 32.889 13.96C32.889 15.66 32.549 17.14 31.869 18.4C31.189 19.66 30.239 20.64 29.019 21.34C27.799 22.02 26.369 22.36 24.729 22.36ZM24.729 18.91C25.849 18.91 26.719 18.48 27.339 17.62C27.959 16.74 28.269 15.52 28.269 13.96C28.269 12.4 27.959 11.19 27.339 10.33C26.719 9.45 25.849 9.01 24.729 9.01C23.609 9.01 22.739 9.45 22.119 10.33C21.499 11.19 21.189 12.4 21.189 13.96C21.189 15.52 21.499 16.74 22.119 17.62C22.739 18.48 23.609 18.91 24.729 18.91ZM37.025 22L32.255 5.92H36.785L39.545 16.81L42.515 5.92H46.175L49.145 16.81L51.935 5.92H56.465L51.695 22H47.315L44.345 11.95L41.375 22H37.025ZM68.6202 22.36C67.2602 22.36 66.0802 22.02 65.0802 21.34C64.1002 20.64 63.3402 19.67 62.8002 18.43C62.2802 17.17 62.0202 15.68 62.0202 13.96C62.0202 12.24 62.2902 10.76 62.8302 9.52C63.3702 8.26 64.1302 7.29 65.1102 6.61C66.1102 5.91 67.2802 5.56 68.6202 5.56C69.7602 5.56 70.7402 5.8 71.5602 6.28C72.4002 6.74 73.0302 7.38 73.4502 8.2V0.699999H77.9502V22H73.6602L73.5702 19.63C73.1302 20.49 72.4702 21.16 71.5902 21.64C70.7302 22.12 69.7402 22.36 68.6202 22.36ZM70.0902 18.91C70.8102 18.91 71.4202 18.72 71.9202 18.34C72.4202 17.96 72.8002 17.41 73.0602 16.69C73.3202 15.95 73.4502 15.04 73.4502 13.96C73.4502 12.86 73.3202 11.95 73.0602 11.23C72.8002 10.49 72.4202 9.94 71.9202 9.58C71.4202 9.2 70.8102 9.01 70.0902 9.01C69.0302 9.01 68.1902 9.46 67.5702 10.36C66.9502 11.24 66.6402 12.44 66.6402 13.96C66.6402 15.46 66.9502 16.66 67.5702 17.56C68.2102 18.46 69.0502 18.91 70.0902 18.91ZM87.4009 22.36C85.7609 22.36 84.3309 22.02 83.1109 21.34C81.8909 20.64 80.9409 19.66 80.2609 18.4C79.5809 17.14 79.2409 15.66 79.2409 13.96C79.2409 12.26 79.5809 10.79 80.2609 9.55C80.9409 8.29 81.8909 7.31 83.1109 6.61C84.3309 5.91 85.7609 5.56 87.4009 5.56C89.0409 5.56 90.4709 5.91 91.6909 6.61C92.9109 7.31 93.8609 8.29 94.5409 9.55C95.2209 10.79 95.5609 12.26 95.5609 13.96C95.5609 15.66 95.2209 17.14 94.5409 18.4C93.8609 19.66 92.9109 20.64 91.6909 21.34C90.4709 22.02 89.0409 22.36 87.4009 22.36ZM87.4009 18.91C88.5209 18.91 89.3909 18.48 90.0109 17.62C90.6309 16.74 90.9409 15.52 90.9409 13.96C90.9409 12.4 90.6309 11.19 90.0109 10.33C89.3909 9.45 88.5209 9.01 87.4009 9.01C86.2809 9.01 85.4109 9.45 84.7909 10.33C84.1709 11.19 83.8609 12.4 83.8609 13.96C83.8609 15.52 84.1709 16.74 84.7909 17.62C85.4109 18.48 86.2809 18.91 87.4009 18.91ZM105.902 22L101.132 5.92H105.662L108.422 16.81L111.392 5.92H115.052L118.022 16.81L120.812 5.92H125.342L120.572 22H116.192L113.222 11.95L110.252 22H105.902ZM132.821 22.36C131.181 22.36 129.751 22.02 128.531 21.34C127.331 20.64 126.391 19.66 125.711 18.4C125.051 17.14 124.721 15.66 124.721 13.96C124.721 12.26 125.051 10.79 125.711 9.55C126.391 8.29 127.331 7.31 128.531 6.61C129.731 5.91 131.151 5.56 132.791 5.56C134.391 5.56 135.781 5.91 136.961 6.61C138.141 7.31 139.051 8.31 139.691 9.61C140.351 10.91 140.681 12.46 140.681 14.26V15.16H129.371C129.431 16.44 129.771 17.39 130.391 18.01C131.031 18.63 131.871 18.94 132.911 18.94C133.671 18.94 134.301 18.78 134.801 18.46C135.321 18.14 135.691 17.65 135.911 16.99L140.441 17.26C140.021 18.86 139.131 20.11 137.771 21.01C136.411 21.91 134.761 22.36 132.821 22.36ZM129.371 12.4H136.061C136.001 11.22 135.671 10.34 135.071 9.76C134.491 9.18 133.731 8.89 132.791 8.89C131.851 8.89 131.071 9.2 130.451 9.82C129.851 10.42 129.491 11.28 129.371 12.4ZM151.002 22L146.232 5.92H150.762L153.522 16.81L156.492 5.92H160.152L163.122 16.81L165.912 5.92H170.442L165.672 22H161.292L158.322 11.95L155.352 22H151.002ZM177.981 22.36C176.341 22.36 174.911 22.02 173.691 21.34C172.471 20.64 171.521 19.66 170.841 18.4C170.161 17.14 169.821 15.66 169.821 13.96C169.821 12.26 170.161 10.79 170.841 9.55C171.521 8.29 172.471 7.31 173.691 6.61C174.911 5.91 176.341 5.56 177.981 5.56C179.621 5.56 181.051 5.91 182.271 6.61C183.491 7.31 184.441 8.29 185.121 9.55C185.801 10.79 186.141 12.26 186.141 13.96C186.141 15.66 185.801 17.14 185.121 18.4C184.441 19.66 183.491 20.64 182.271 21.34C181.051 22.02 179.621 22.36 177.981 22.36ZM177.981 18.91C179.101 18.91 179.971 18.48 180.591 17.62C181.211 16.74 181.521 15.52 181.521 13.96C181.521 12.4 181.211 11.19 180.591 10.33C179.971 9.45 179.101 9.01 177.981 9.01C176.861 9.01 175.991 9.45 175.371 10.33C174.751 11.19 174.441 12.4 174.441 13.96C174.441 15.52 174.751 16.74 175.371 17.62C175.991 18.48 176.861 18.91 177.981 18.91ZM187.443 22V5.92H191.703L191.853 10.6L191.523 10.51C191.783 8.89 192.243 7.72 192.903 7C193.563 6.28 194.473 5.92 195.633 5.92H197.103V9.64H195.633C194.793 9.64 194.103 9.75 193.563 9.97C193.023 10.19 192.613 10.54 192.333 11.02C192.073 11.5 191.943 12.15 191.943 12.97V22H187.443ZM197.955 22V0.699999H202.455V12.52L208.425 5.92H213.825L207.585 12.55L214.005 22H209.085L204.675 15.1L202.455 17.47V22H197.955Z" fill="#9EE345"/>
</g>
<defs>
<filter id="filter0_i_56_737" x="0.97998" y="0.700195" width="213.025" height="21.6602" filterUnits="userSpaceOnUse" color-interpolation-filters="sRGB">
<feFlood flood-opacity="0" result="BackgroundImageFix"/>
<feBlend mode="normal" in="SourceGraphic" in2="BackgroundImageFix" result="shape"/>
<feColorMatrix in="SourceAlpha" type="matrix" values="0 0 0 0 0 0 0 0 0 0 0 0 0 0 0 0 0 0 127 0" result="hardAlpha"/>
<feOffset/>
<feGaussianBlur stdDeviation="9"/>
<feComposite in2="hardAlpha" operator="arithmetic" k2="-1" k3="1"/>
<feColorMatrix type="matrix" values="0 0 0 0 0 0 0 0 0 0 0 0 0 0 0 0 0 0 0.75 0"/>
<feBlend mode="normal" in2="shape" result="effect1_innerShadow_56_737"/>
</filter>
</defs>
</svg>
