<svg width="219" height="27" viewBox="0 0 219 27" fill="none" xmlns="http://www.w3.org/2000/svg">
<g filter="url(#filter0_i_56_753)">
<path d="M5.4 22L0.63 5.92H5.16L7.92 16.81L10.89 5.92H14.55L17.52 16.81L20.31 5.92H24.84L20.07 22H15.69L12.72 11.95L9.75 22H5.4ZM25.646 22V0.699999H30.146V9.67H29.546C29.706 8.73 30.016 7.96 30.476 7.36C30.956 6.76 31.546 6.31 32.246 6.01C32.966 5.71 33.746 5.56 34.586 5.56C35.786 5.56 36.786 5.82 37.586 6.34C38.386 6.86 38.986 7.58 39.386 8.5C39.806 9.42 40.016 10.47 40.016 11.65V22H35.516V12.73C35.516 11.53 35.326 10.63 34.946 10.03C34.586 9.43 33.966 9.13 33.086 9.13C32.166 9.13 31.446 9.44 30.926 10.06C30.406 10.68 30.146 11.61 30.146 12.85V22H25.646ZM46.875 22.36C45.215 22.36 43.855 21.98 42.795 21.22C41.755 20.44 41.235 19.36 41.235 17.98C41.235 16.56 41.675 15.47 42.555 14.71C43.455 13.93 44.775 13.36 46.515 13L51.705 11.98C51.705 10.94 51.465 10.16 50.985 9.64C50.525 9.1 49.855 8.83 48.975 8.83C48.115 8.83 47.445 9.03 46.965 9.43C46.485 9.81 46.175 10.38 46.035 11.14L41.505 10.93C41.805 9.17 42.595 7.84 43.875 6.94C45.175 6.02 46.875 5.56 48.975 5.56C51.375 5.56 53.175 6.13 54.375 7.27C55.595 8.41 56.205 10.08 56.205 12.28V17.77C56.205 18.23 56.275 18.54 56.415 18.7C56.575 18.84 56.805 18.91 57.105 18.91H57.555V22C57.415 22.04 57.185 22.08 56.865 22.12C56.565 22.16 56.265 22.18 55.965 22.18C55.325 22.18 54.725 22.07 54.165 21.85C53.625 21.63 53.185 21.26 52.845 20.74C52.505 20.2 52.335 19.44 52.335 18.46L52.725 18.76C52.525 19.48 52.165 20.11 51.645 20.65C51.145 21.19 50.485 21.61 49.665 21.91C48.865 22.21 47.935 22.36 46.875 22.36ZM47.955 19.27C48.695 19.27 49.345 19.13 49.905 18.85C50.465 18.55 50.905 18.12 51.225 17.56C51.545 17 51.705 16.34 51.705 15.58V14.8L48.045 15.58C47.325 15.72 46.775 15.96 46.395 16.3C46.035 16.62 45.855 17.04 45.855 17.56C45.855 18.1 46.035 18.52 46.395 18.82C46.755 19.12 47.275 19.27 47.955 19.27ZM64.1986 22C62.5386 22 61.3186 21.62 60.5386 20.86C59.7586 20.08 59.3686 18.85 59.3686 17.17V2.14H63.8686V16.63C63.8686 17.41 64.0286 17.94 64.3486 18.22C64.6886 18.5 65.1886 18.64 65.8486 18.64H68.0986V22H64.1986ZM56.7886 9.28V5.92H68.0986V9.28H56.7886ZM74.7241 22V5.92H79.2241V22H74.7241ZM74.6341 3.94V0.339998H79.2841V3.94H74.6341ZM88.2387 22.36C86.5787 22.36 85.1887 22.13 84.0687 21.67C82.9487 21.19 82.0887 20.55 81.4887 19.75C80.9087 18.93 80.5787 17.99 80.4987 16.93L85.0587 16.78C85.1987 17.54 85.5187 18.13 86.0187 18.55C86.5187 18.97 87.2587 19.18 88.2387 19.18C89.0387 19.18 89.6587 19.05 90.0987 18.79C90.5587 18.53 90.7887 18.13 90.7887 17.59C90.7887 17.25 90.7087 16.97 90.5487 16.75C90.3887 16.51 90.0687 16.31 89.5887 16.15C89.1287 15.97 88.4387 15.81 87.5187 15.67C85.8187 15.37 84.4887 15.02 83.5287 14.62C82.5687 14.22 81.8887 13.7 81.4887 13.06C81.0887 12.42 80.8887 11.64 80.8887 10.72C80.8887 9.18 81.4787 7.94 82.6587 7C83.8587 6.04 85.6487 5.56 88.0287 5.56C89.5487 5.56 90.8187 5.8 91.8387 6.28C92.8787 6.76 93.6787 7.42 94.2387 8.26C94.8187 9.08 95.1787 10.02 95.3187 11.08L90.7887 11.26C90.7287 10.74 90.5687 10.3 90.3087 9.94C90.0687 9.56 89.7587 9.27 89.3787 9.07C88.9987 8.85 88.5387 8.74 87.9987 8.74C87.1987 8.74 86.5787 8.91 86.1387 9.25C85.7187 9.57 85.5087 10 85.5087 10.54C85.5087 10.94 85.5987 11.27 85.7787 11.53C85.9787 11.77 86.2987 11.97 86.7387 12.13C87.1787 12.29 87.7687 12.42 88.5087 12.52C90.2287 12.76 91.5887 13.1 92.5887 13.54C93.6087 13.96 94.3387 14.49 94.7787 15.13C95.2187 15.77 95.4387 16.56 95.4387 17.5C95.4387 18.54 95.1387 19.42 94.5387 20.14C93.9387 20.86 93.0987 21.41 92.0187 21.79C90.9587 22.17 89.6987 22.36 88.2387 22.36ZM111.574 22.36C110.454 22.36 109.474 22.12 108.634 21.64C107.814 21.16 107.174 20.49 106.714 19.63L106.624 22H102.334V0.699999H106.834V8.2C107.254 7.46 107.874 6.84 108.694 6.34C109.514 5.82 110.474 5.56 111.574 5.56C112.934 5.56 114.114 5.91 115.114 6.61C116.114 7.29 116.884 8.26 117.424 9.52C117.984 10.78 118.264 12.26 118.264 13.96C118.264 15.66 117.984 17.14 117.424 18.4C116.884 19.66 116.114 20.64 115.114 21.34C114.114 22.02 112.934 22.36 111.574 22.36ZM110.314 18.91C111.314 18.91 112.114 18.48 112.714 17.62C113.334 16.74 113.644 15.52 113.644 13.96C113.644 12.4 113.344 11.19 112.744 10.33C112.144 9.45 111.344 9.01 110.344 9.01C109.604 9.01 108.964 9.21 108.424 9.61C107.904 9.99 107.504 10.55 107.224 11.29C106.964 12.03 106.834 12.92 106.834 13.96C106.834 14.98 106.964 15.86 107.224 16.6C107.504 17.34 107.904 17.91 108.424 18.31C108.964 18.71 109.594 18.91 110.314 18.91ZM120.288 26.5V23.14H122.418C122.938 23.14 123.318 23.06 123.558 22.9C123.818 22.76 124.018 22.5 124.158 22.12L124.488 21.19H123.258L117.618 5.92H122.208L125.898 16.99L129.348 5.92H133.938L127.758 23.53C127.398 24.59 126.878 25.35 126.198 25.81C125.518 26.27 124.568 26.5 123.348 26.5H120.288ZM141.033 22C139.373 22 138.153 21.62 137.373 20.86C136.593 20.08 136.203 18.85 136.203 17.17V2.14H140.703V16.63C140.703 17.41 140.863 17.94 141.183 18.22C141.523 18.5 142.023 18.64 142.683 18.64H144.933V22H141.033ZM133.623 9.28V5.92H144.933V9.28H133.623ZM153.052 22.36C151.412 22.36 149.982 22.02 148.762 21.34C147.562 20.64 146.622 19.66 145.942 18.4C145.282 17.14 144.952 15.66 144.952 13.96C144.952 12.26 145.282 10.79 145.942 9.55C146.622 8.29 147.562 7.31 148.762 6.61C149.962 5.91 151.382 5.56 153.022 5.56C154.622 5.56 156.012 5.91 157.192 6.61C158.372 7.31 159.282 8.31 159.922 9.61C160.582 10.91 160.912 12.46 160.912 14.26V15.16H149.602C149.662 16.44 150.002 17.39 150.622 18.01C151.262 18.63 152.102 18.94 153.142 18.94C153.902 18.94 154.532 18.78 155.032 18.46C155.552 18.14 155.922 17.65 156.142 16.99L160.672 17.26C160.252 18.86 159.362 20.11 158.002 21.01C156.642 21.91 154.992 22.36 153.052 22.36ZM149.602 12.4H156.292C156.232 11.22 155.902 10.34 155.302 9.76C154.722 9.18 153.962 8.89 153.022 8.89C152.082 8.89 151.302 9.2 150.682 9.82C150.082 10.42 149.722 11.28 149.602 12.4ZM169.483 22.36C167.843 22.36 166.413 22.02 165.193 21.34C163.973 20.64 163.023 19.66 162.343 18.4C161.663 17.14 161.323 15.66 161.323 13.96C161.323 12.26 161.663 10.79 162.343 9.55C163.023 8.29 163.973 7.31 165.193 6.61C166.413 5.91 167.843 5.56 169.483 5.56C170.903 5.56 172.173 5.81 173.293 6.31C174.433 6.81 175.353 7.53 176.053 8.47C176.753 9.41 177.183 10.54 177.343 11.86L172.693 12.07C172.553 11.07 172.193 10.32 171.613 9.82C171.053 9.3 170.343 9.04 169.483 9.04C168.363 9.04 167.493 9.47 166.873 10.33C166.253 11.19 165.943 12.4 165.943 13.96C165.943 15.52 166.253 16.74 166.873 17.62C167.493 18.48 168.363 18.91 169.483 18.91C170.343 18.91 171.063 18.65 171.643 18.13C172.223 17.59 172.573 16.78 172.693 15.7L177.343 15.88C177.203 17.2 176.783 18.35 176.083 19.33C175.403 20.29 174.493 21.04 173.353 21.58C172.233 22.1 170.943 22.36 169.483 22.36ZM182.676 22C181.356 22 180.326 21.67 179.586 21.01C178.846 20.35 178.476 19.28 178.476 17.8V0.699999H182.976V17.32C182.976 17.8 183.086 18.14 183.306 18.34C183.526 18.54 183.846 18.64 184.266 18.64H185.346V22H182.676ZM191.426 22.36C189.766 22.36 188.466 21.83 187.526 20.77C186.606 19.69 186.146 18.19 186.146 16.27V5.92H190.646V15.22C190.646 16.46 190.836 17.37 191.216 17.95C191.596 18.51 192.196 18.79 193.016 18.79C193.936 18.79 194.646 18.48 195.146 17.86C195.666 17.22 195.926 16.27 195.926 15.01V5.92H200.426V22H196.316L196.196 17.38L196.766 17.5C196.526 19.1 195.956 20.31 195.056 21.13C194.156 21.95 192.946 22.36 191.426 22.36ZM211.874 22.36C210.754 22.36 209.774 22.12 208.934 21.64C208.114 21.16 207.474 20.49 207.014 19.63L206.924 22H202.634V0.699999H207.134V8.2C207.554 7.46 208.174 6.84 208.994 6.34C209.814 5.82 210.774 5.56 211.874 5.56C213.234 5.56 214.414 5.91 215.414 6.61C216.414 7.29 217.184 8.26 217.724 9.52C218.284 10.78 218.564 12.26 218.564 13.96C218.564 15.66 218.284 17.14 217.724 18.4C217.184 19.66 216.414 20.64 215.414 21.34C214.414 22.02 213.234 22.36 211.874 22.36ZM210.614 18.91C211.614 18.91 212.414 18.48 213.014 17.62C213.634 16.74 213.944 15.52 213.944 13.96C213.944 12.4 213.644 11.19 213.044 10.33C212.444 9.45 211.644 9.01 210.644 9.01C209.904 9.01 209.264 9.21 208.724 9.61C208.204 9.99 207.804 10.55 207.524 11.29C207.264 12.03 207.134 12.92 207.134 13.96C207.134 14.98 207.264 15.86 207.524 16.6C207.804 17.34 208.204 17.91 208.724 18.31C209.264 18.71 209.894 18.91 210.614 18.91Z" fill="#F196E5"/>
</g>
<defs>
<filter id="filter0_i_56_753" x="0.629883" y="0.339844" width="217.934" height="26.1602" filterUnits="userSpaceOnUse" color-interpolation-filters="sRGB">
<feFlood flood-opacity="0" result="BackgroundImageFix"/>
<feBlend mode="normal" in="SourceGraphic" in2="BackgroundImageFix" result="shape"/>
<feColorMatrix in="SourceAlpha" type="matrix" values="0 0 0 0 0 0 0 0 0 0 0 0 0 0 0 0 0 0 127 0" result="hardAlpha"/>
<feOffset/>
<feGaussianBlur stdDeviation="9"/>
<feComposite in2="hardAlpha" operator="arithmetic" k2="-1" k3="1"/>
<feColorMatrix type="matrix" values="0 0 0 0 0 0 0 0 0 0 0 0 0 0 0 0 0 0 0.75 0"/>
<feBlend mode="normal" in2="shape" result="effect1_innerShadow_56_753"/>
</filter>
</defs>
</svg>
