<svg width="150" height="27" viewBox="0 0 150 27" fill="none" xmlns="http://www.w3.org/2000/svg">
<g filter="url(#filter0_i_48_699)">
<path d="M5.4 22L0.63 5.92H5.16L7.92 16.81L10.89 5.92H14.55L17.52 16.81L20.31 5.92H24.84L20.07 22H15.69L12.72 11.95L9.75 22H5.4ZM25.646 22V0.699999H30.146V9.67H29.546C29.706 8.73 30.016 7.96 30.476 7.36C30.956 6.76 31.546 6.31 32.246 6.01C32.966 5.71 33.746 5.56 34.586 5.56C35.786 5.56 36.786 5.82 37.586 6.34C38.386 6.86 38.986 7.58 39.386 8.5C39.806 9.42 40.016 10.47 40.016 11.65V22H35.516V12.73C35.516 11.53 35.326 10.63 34.946 10.03C34.586 9.43 33.966 9.13 33.086 9.13C32.166 9.13 31.446 9.44 30.926 10.06C30.406 10.68 30.146 11.61 30.146 12.85V22H25.646ZM42.8391 26.5V23.14H44.9691C45.4891 23.14 45.8691 23.06 46.1091 22.9C46.3691 22.76 46.5691 22.5 46.7091 22.12L47.0391 21.19H45.8091L40.1691 5.92H44.7591L48.4491 16.99L51.8991 5.92H56.4891L50.3091 23.53C49.9491 24.59 49.4291 25.35 48.7491 25.81C48.0691 26.27 47.1191 26.5 45.8991 26.5H42.8391ZM67.6934 22.36C66.0334 22.36 64.6734 21.98 63.6134 21.22C62.5734 20.44 62.0534 19.36 62.0534 17.98C62.0534 16.56 62.4934 15.47 63.3734 14.71C64.2734 13.93 65.5934 13.36 67.3334 13L72.5234 11.98C72.5234 10.94 72.2834 10.16 71.8034 9.64C71.3434 9.1 70.6734 8.83 69.7934 8.83C68.9334 8.83 68.2634 9.03 67.7834 9.43C67.3034 9.81 66.9934 10.38 66.8534 11.14L62.3234 10.93C62.6234 9.17 63.4134 7.84 64.6934 6.94C65.9934 6.02 67.6934 5.56 69.7934 5.56C72.1934 5.56 73.9934 6.13 75.1934 7.27C76.4134 8.41 77.0234 10.08 77.0234 12.28V17.77C77.0234 18.23 77.0934 18.54 77.2334 18.7C77.3934 18.84 77.6234 18.91 77.9234 18.91H78.3734V22C78.2334 22.04 78.0034 22.08 77.6834 22.12C77.3834 22.16 77.0834 22.18 76.7834 22.18C76.1434 22.18 75.5434 22.07 74.9834 21.85C74.4434 21.63 74.0034 21.26 73.6634 20.74C73.3234 20.2 73.1534 19.44 73.1534 18.46L73.5434 18.76C73.3434 19.48 72.9834 20.11 72.4634 20.65C71.9634 21.19 71.3034 21.61 70.4834 21.91C69.6834 22.21 68.7534 22.36 67.6934 22.36ZM68.7734 19.27C69.5134 19.27 70.1634 19.13 70.7234 18.85C71.2834 18.55 71.7234 18.12 72.0434 17.56C72.3634 17 72.5234 16.34 72.5234 15.58V14.8L68.8634 15.58C68.1434 15.72 67.5934 15.96 67.2134 16.3C66.8534 16.62 66.6734 17.04 66.6734 17.56C66.6734 18.1 66.8534 18.52 67.2134 18.82C67.5734 19.12 68.0934 19.27 68.7734 19.27ZM79.2359 22V5.92H83.4959L83.6459 10.6L83.3159 10.51C83.5759 8.89 84.0359 7.72 84.6959 7C85.3559 6.28 86.2659 5.92 87.4259 5.92H88.8959V9.64H87.4259C86.5859 9.64 85.8959 9.75 85.3559 9.97C84.8159 10.19 84.4059 10.54 84.1259 11.02C83.8659 11.5 83.7359 12.15 83.7359 12.97V22H79.2359ZM96.5088 22.36C94.8688 22.36 93.4388 22.02 92.2188 21.34C91.0188 20.64 90.0788 19.66 89.3988 18.4C88.7388 17.14 88.4088 15.66 88.4088 13.96C88.4088 12.26 88.7388 10.79 89.3988 9.55C90.0788 8.29 91.0188 7.31 92.2188 6.61C93.4188 5.91 94.8388 5.56 96.4788 5.56C98.0788 5.56 99.4688 5.91 100.649 6.61C101.829 7.31 102.739 8.31 103.379 9.61C104.039 10.91 104.369 12.46 104.369 14.26V15.16H93.0588C93.1188 16.44 93.4588 17.39 94.0788 18.01C94.7188 18.63 95.5588 18.94 96.5988 18.94C97.3588 18.94 97.9888 18.78 98.4888 18.46C99.0088 18.14 99.3788 17.65 99.5988 16.99L104.129 17.26C103.709 18.86 102.819 20.11 101.459 21.01C100.099 21.91 98.4488 22.36 96.5088 22.36ZM93.0588 12.4H99.7488C99.6888 11.22 99.3588 10.34 98.7588 9.76C98.1788 9.18 97.4188 8.89 96.4788 8.89C95.5388 8.89 94.7588 9.2 94.1388 9.82C93.5388 10.42 93.1788 11.28 93.0588 12.4ZM114.689 22L109.919 5.92H114.449L117.209 16.81L120.179 5.92H123.839L126.809 16.81L129.599 5.92H134.129L129.359 22H124.979L122.009 11.95L119.039 22H114.689ZM141.608 22.36C139.968 22.36 138.538 22.02 137.318 21.34C136.118 20.64 135.178 19.66 134.498 18.4C133.838 17.14 133.508 15.66 133.508 13.96C133.508 12.26 133.838 10.79 134.498 9.55C135.178 8.29 136.118 7.31 137.318 6.61C138.518 5.91 139.938 5.56 141.578 5.56C143.178 5.56 144.568 5.91 145.748 6.61C146.928 7.31 147.838 8.31 148.478 9.61C149.138 10.91 149.468 12.46 149.468 14.26V15.16H138.158C138.218 16.44 138.558 17.39 139.178 18.01C139.818 18.63 140.658 18.94 141.698 18.94C142.458 18.94 143.088 18.78 143.588 18.46C144.108 18.14 144.478 17.65 144.698 16.99L149.228 17.26C148.808 18.86 147.918 20.11 146.558 21.01C145.198 21.91 143.548 22.36 141.608 22.36ZM138.158 12.4H144.848C144.788 11.22 144.458 10.34 143.858 9.76C143.278 9.18 142.518 8.89 141.578 8.89C140.638 8.89 139.858 9.2 139.238 9.82C138.638 10.42 138.278 11.28 138.158 12.4Z" fill="#9989FF"/>
</g>
<defs>
<filter id="filter0_i_48_699" x="0.629883" y="0.700195" width="148.839" height="25.7998" filterUnits="userSpaceOnUse" color-interpolation-filters="sRGB">
<feFlood flood-opacity="0" result="BackgroundImageFix"/>
<feBlend mode="normal" in="SourceGraphic" in2="BackgroundImageFix" result="shape"/>
<feColorMatrix in="SourceAlpha" type="matrix" values="0 0 0 0 0 0 0 0 0 0 0 0 0 0 0 0 0 0 127 0" result="hardAlpha"/>
<feOffset/>
<feGaussianBlur stdDeviation="9"/>
<feComposite in2="hardAlpha" operator="arithmetic" k2="-1" k3="1"/>
<feColorMatrix type="matrix" values="0 0 0 0 0 0 0 0 0 0 0 0 0 0 0 0 0 0 0.75 0"/>
<feBlend mode="normal" in2="shape" result="effect1_innerShadow_48_699"/>
</filter>
</defs>
</svg>
