<svg width="1720" height="189" viewBox="0 0 1720 189" fill="none" xmlns="http://www.w3.org/2000/svg">
<path d="M0 0.5H1720V88.4075C1720 155.45 1655.33 203.502 1591.14 184.151L1413.94 130.733C1391.98 124.113 1368.42 125.243 1347.19 133.933L1273.97 163.911C1253.26 172.391 1230.3 173.678 1208.77 167.565L1081.46 131.42C1056.77 124.41 1030.33 127.162 1007.61 139.106L960.194 164.037C922.632 183.786 876.696 177.676 845.602 148.796L804.869 110.962C775.785 83.948 733.476 76.6939 697.054 92.4768L636.806 118.584C608.531 130.837 576.186 129.369 549.137 114.605L501.389 88.5442C475.755 74.5531 445.285 72.4667 417.983 82.833L283.835 133.768C252.963 145.49 218.294 141.214 191.194 122.343L136.206 84.0521C120.293 72.9715 100.172 69.8167 81.632 75.4956C41.0459 87.9274 0 57.5717 0 15.1243V0.5Z" fill="#FFB632"/>
</svg>
