<svg width="1720" height="189" viewBox="0 0 1720 189" fill="none" xmlns="http://www.w3.org/2000/svg">
<path d="M1720 188.5H0V100.592C0 33.5499 64.6748 -14.5024 128.864 4.84868L306.056 58.2669C328.016 64.8871 351.584 63.7574 372.809 55.0671L446.03 25.0891C466.743 16.6089 489.702 15.3223 511.232 21.4352L638.539 57.5801C663.229 64.5903 689.67 61.8383 712.388 49.8938L759.806 24.9628C797.368 5.21373 843.304 11.3236 874.398 40.2043L915.131 78.0377C944.215 105.052 986.524 112.306 1022.95 96.5232L1083.19 70.416C1111.47 58.1634 1143.81 59.6314 1170.86 74.3948L1218.61 100.456C1244.25 114.447 1274.71 116.533 1302.02 106.167L1436.16 55.2322C1467.04 43.5101 1501.71 47.7855 1528.81 66.6567L1583.79 104.948C1599.71 116.029 1619.83 119.183 1638.37 113.504C1678.95 101.073 1720 131.428 1720 173.876V188.5Z" fill="#F196E5"/>
</svg>
